<?xml version="1.0" standalone="no"?>
<!DOCTYPE svg PUBLIC "-//W3C//DTD SVG 20010904//EN"
 "http://www.w3.org/TR/2001/REC-SVG-20010904/DTD/svg10.dtd">
<svg version="1.0" xmlns="http://www.w3.org/2000/svg"
 width="663.000000pt" height="1152.000000pt" viewBox="0 0 663.000000 1152.000000"
 preserveAspectRatio="xMidYMid meet">

<g transform="translate(0.000000,1152.000000) scale(0.100000,-0.100000)"
fill="#000000" stroke="none">
<path d="M2050 11505 c-105 -33 -180 -139 -180 -254 1 -79 16 -126 59 -180 47
-59 116 -88 235 -100 79 -8 113 -17 173 -45 141 -67 238 -197 265 -353 22
-128 -22 -274 -112 -376 -23 -26 -108 -92 -190 -147 -458 -312 -855 -711
-1161 -1169 -267 -401 -414 -802 -460 -1255 -15 -153 -7 -573 16 -756 149
-1223 791 -2294 1791 -2991 239 -167 543 -334 665 -365 89 -23 275 -26 359 -5
176 42 611 301 922 549 167 133 503 468 634 632 465 584 758 1231 883 1950 42
241 55 405 55 690 1 291 -6 370 -51 585 -87 416 -244 747 -553 1160 -289 387
-680 755 -1070 1007 -136 88 -212 185 -246 313 -49 183 38 397 205 504 67 44
123 61 230 72 111 12 145 24 201 75 54 49 81 103 87 176 11 111 -41 209 -138
263 l-54 30 -1260 2 c-1058 1 -1267 0 -1305 -12z m2557 -145 c60 -36 82 -115
50 -177 -25 -48 -62 -65 -156 -74 -224 -22 -399 -135 -495 -319 -52 -100 -70
-170 -70 -285 0 -213 98 -394 277 -512 485 -318 864 -686 1184 -1151 258 -374
400 -736 458 -1167 29 -215 20 -594 -21 -885 -145 -1029 -680 -1968 -1494
-2625 -281 -227 -694 -478 -857 -520 -73 -19 -212 -19 -288 0 -137 34 -485
237 -750 436 -235 176 -492 419 -676 639 -513 612 -829 1333 -934 2128 -66
503 -31 940 106 1339 76 221 162 389 315 618 305 458 664 816 1152 1150 199
137 275 233 318 405 23 89 15 261 -16 347 -47 135 -156 262 -280 327 -89 47
-146 64 -255 75 -99 10 -130 26 -159 85 -12 26 -16 47 -12 71 8 39 49 93 80
105 12 5 577 9 1256 9 1208 1 1236 0 1267 -19z"/>
<path d="M3698 9315 c-84 -21 -174 -70 -234 -127 -101 -95 -121 -183 -80 -341
14 -53 26 -111 26 -128 0 -29 -2 -31 -27 -24 -16 4 -59 11 -97 14 -60 6 -72
11 -97 39 -37 41 -47 94 -25 127 28 43 86 55 99 21 4 -9 -2 -11 -17 -9 -28 6
-41 -19 -26 -48 22 -40 80 -15 80 34 0 38 -7 50 -39 66 -59 32 -141 -25 -141
-99 0 -47 15 -88 41 -116 l20 -21 -35 -21 c-74 -44 -121 -142 -133 -277 l-6
-69 -14 38 c-36 106 -58 261 -58 421 0 172 13 258 61 399 26 79 25 96 -6 96
-30 0 -76 -144 -101 -319 -12 -85 -7 -359 7 -411 6 -21 0 -18 -31 18 -49 56
-150 127 -224 157 -33 14 -99 32 -148 40 -107 19 -145 42 -180 113 -32 65 -27
112 16 156 53 52 133 34 130 -28 -1 -17 -2 -17 -6 -4 -6 22 -40 33 -58 18 -18
-15 -19 -52 -3 -68 18 -18 73 -14 91 6 25 28 22 86 -7 119 -21 24 -32 28 -78
28 -92 0 -148 -60 -148 -157 0 -47 30 -121 62 -155 l21 -22 -29 -6 c-155 -34
-260 -121 -310 -255 -21 -56 -24 -191 -5 -244 33 -94 130 -160 237 -159 113 1
169 54 169 161 0 57 -3 66 -28 88 -59 50 -157 23 -157 -44 0 -59 79 -84 95
-31 8 24 -13 43 -31 29 -15 -14 -26 0 -13 17 12 14 47 17 65 5 46 -30 40 -106
-12 -151 -29 -26 -43 -31 -85 -31 -81 0 -152 39 -185 102 -82 157 14 378 194
449 81 32 238 33 337 2 122 -38 241 -130 311 -239 18 -28 49 -99 69 -158 19
-59 47 -135 61 -168 14 -33 23 -62 20 -65 -2 -2 -15 1 -28 8 -13 8 -57 13
-103 13 -63 1 -91 -4 -132 -23 -60 -27 -134 -101 -153 -153 -13 -35 -15 -36
-79 -42 -165 -15 -281 -136 -286 -299 -3 -66 -4 -69 -38 -93 -111 -75 -152
-241 -95 -377 25 -59 114 -142 169 -158 28 -9 38 -17 34 -27 -71 -187 30 -392
212 -430 37 -8 38 -10 44 -58 13 -102 52 -181 113 -228 l33 -25 -5 -79 c-6
-104 14 -165 77 -235 47 -52 47 -52 35 -92 -18 -57 -17 -135 3 -195 22 -69 96
-150 163 -179 47 -20 50 -23 38 -44 -6 -12 -12 -56 -11 -97 0 -125 57 -219
168 -278 43 -23 62 -27 135 -27 73 0 93 4 142 28 62 30 105 74 140 140 19 35
23 58 23 133 l0 92 43 23 c58 30 117 100 137 160 23 67 17 189 -11 244 l-20
40 30 55 c27 49 31 64 31 140 l0 85 38 18 c51 26 122 108 141 164 30 89 16
214 -33 281 -18 26 -18 26 11 66 41 57 62 136 55 211 l-6 61 50 11 c104 25
186 110 215 223 19 77 12 141 -25 215 l-27 53 52 7 c71 9 84 25 50 66 -32 38
-55 81 -111 211 l-42 96 41 -15 c27 -10 76 -15 146 -15 125 1 230 25 340 79
88 43 152 51 252 33 78 -14 104 -5 80 28 -17 24 -82 157 -140 289 -153 348
-319 534 -515 578 l-51 11 59 30 c54 26 71 29 165 31 58 1 108 2 113 2 34 3
-45 113 -156 217 -127 119 -238 164 -403 164 -106 0 -193 -23 -267 -70 l-48
-30 18 30 c10 17 42 54 71 81 28 28 52 55 52 59 0 34 -175 50 -272 25z m172
-41 c0 -3 -18 -26 -39 -52 -52 -63 -82 -125 -84 -175 -3 -59 22 -60 81 -5 61
56 103 81 179 107 123 41 285 21 398 -50 47 -29 205 -176 205 -190 0 -4 -28
-10 -62 -14 -78 -9 -153 -36 -207 -75 -44 -32 -78 -76 -67 -87 4 -4 38 -10 75
-14 45 -4 90 -16 132 -36 141 -66 229 -172 359 -431 40 -81 140 -306 140 -317
0 -2 -44 -4 -97 -7 -87 -3 -104 -7 -153 -35 -98 -56 -189 -78 -326 -78 l-121
0 -116 58 c-63 31 -123 57 -131 57 -34 0 -13 -38 64 -115 70 -71 83 -90 115
-170 20 -49 47 -109 60 -131 14 -23 21 -44 18 -48 -12 -12 -82 -6 -110 10 -28
16 -28 18 -28 113 0 85 -3 102 -27 147 -56 107 -154 166 -275 167 l-74 0 -19
37 c-46 91 -154 153 -265 154 -85 0 -131 -15 -191 -61 -25 -19 -47 -33 -49
-31 -12 12 -35 136 -35 184 1 130 43 226 147 335 43 45 78 91 83 110 16 55 11
139 -11 219 -40 143 -24 215 69 302 56 52 128 92 205 113 52 14 157 20 157 9z
m-524 -625 c24 -6 44 -14 44 -18 0 -4 -23 -29 -51 -56 -70 -68 -126 -156 -150
-238 -28 -89 -23 -241 10 -335 15 -43 19 -68 12 -79 -8 -14 -12 -12 -31 18
-11 19 -44 81 -72 138 l-50 103 4 137 c6 153 22 217 71 276 51 62 116 78 213
54z m-326 -627 c40 -20 64 -41 88 -77 l34 -50 -61 -12 c-83 -17 -130 -43 -185
-103 -47 -54 -76 -123 -76 -187 0 -18 -4 -33 -8 -33 -5 0 -28 13 -52 29 -108
72 -145 216 -86 330 25 47 93 103 148 122 67 24 124 19 198 -19z m554 6 c63
-19 140 -100 160 -167 20 -68 20 -84 0 -150 -30 -103 -140 -181 -254 -181
l-37 0 -5 63 c-3 34 -15 86 -28 114 -23 53 -88 124 -135 145 -32 14 -31 26 4
75 72 99 179 135 295 101z m358 -190 c50 -15 123 -79 149 -130 77 -151 -25
-341 -195 -364 -76 -11 -107 1 -141 51 -16 25 -51 60 -77 78 l-47 33 36 20
c83 44 149 172 141 275 l-3 49 49 0 c27 0 66 -5 88 -12z m-1340 -61 c4 -32 17
-79 28 -105 24 -54 90 -125 132 -143 15 -6 28 -14 28 -18 -1 -3 -21 -19 -46
-35 -27 -17 -61 -52 -82 -85 -20 -31 -41 -60 -47 -64 -17 -13 -110 0 -153 22
-222 113 -178 428 68 481 60 13 64 10 72 -53z m634 38 c71 -29 135 -107 153
-186 16 -72 5 -116 -35 -135 -42 -20 -109 -86 -126 -125 -16 -36 -22 -36 -38
1 -16 39 -98 115 -146 135 -22 9 -66 19 -99 23 -58 7 -60 8 -63 39 -7 73 46
177 113 222 71 48 163 58 241 26z m-208 -364 c124 -63 179 -210 125 -331 -24
-55 -96 -123 -149 -141 -219 -73 -420 162 -308 361 32 57 98 111 158 130 45
14 127 5 174 -19z m593 -7 c151 -83 180 -282 58 -403 -72 -72 -188 -95 -279
-54 -106 47 -174 173 -151 278 40 177 218 262 372 179z m-1321 -14 c7 -17 37
-53 67 -80 59 -54 124 -80 200 -80 l43 0 0 -48 c0 -26 4 -62 9 -80 9 -29 6
-37 -21 -68 -49 -56 -102 -78 -183 -78 -79 0 -130 20 -185 76 -74 74 -92 190
-44 286 23 47 74 102 94 102 4 0 13 -14 20 -30z m1892 -22 c53 -42 88 -117 88
-192 -1 -103 -51 -185 -142 -230 -73 -37 -97 -34 -131 15 -32 46 -105 95 -163
110 l-40 10 0 85 1 84 65 0 c84 0 170 39 223 100 20 24 37 48 37 52 0 11 14 4
62 -34z m-963 -336 c19 -45 90 -109 154 -136 l57 -26 0 -52 c0 -107 -80 -212
-184 -243 -62 -19 -80 -19 -145 1 -102 30 -181 135 -181 240 l0 52 38 7 c91
17 195 90 223 157 6 15 15 28 19 28 4 0 13 -13 19 -28z m613 -18 c128 -43 201
-181 163 -310 -13 -44 -28 -68 -68 -108 -56 -55 -104 -76 -177 -76 -135 0
-251 111 -254 243 -1 86 7 103 60 116 73 18 118 46 165 100 24 28 49 50 55 51
6 0 31 -7 56 -16z m-1040 -118 c49 -19 61 -37 74 -108 16 -92 -60 -218 -156
-261 -136 -61 -302 20 -345 168 -18 61 -15 105 11 166 15 34 19 37 69 42 60 6
139 43 174 81 l24 26 51 -48 c28 -27 72 -56 98 -66z m681 -261 c37 -78 150
-165 214 -165 21 0 23 -4 23 -58 0 -186 -201 -308 -368 -223 -88 45 -150 157
-139 253 4 26 8 52 11 57 3 4 32 18 64 30 62 22 146 88 157 121 9 29 19 25 38
-15z m-444 -89 c25 -13 58 -26 73 -30 70 -16 60 -174 -18 -264 -89 -105 -241
-120 -350 -37 -90 69 -134 245 -61 245 66 0 185 93 216 168 l13 32 40 -45 c23
-25 61 -56 87 -69z m937 -90 c43 -92 24 -198 -49 -274 -29 -31 -86 -68 -91
-60 -1 2 -13 20 -25 40 -12 20 -35 48 -51 62 l-30 24 21 48 c12 26 23 74 25
108 l3 61 46 7 c25 3 60 15 78 26 17 10 36 17 41 14 4 -2 19 -28 32 -56z
m-732 -264 l29 -40 -16 -79 c-9 -44 -13 -97 -10 -121 5 -39 3 -46 -28 -78 -55
-58 -104 -78 -184 -78 -107 0 -189 53 -234 154 -20 45 -28 135 -13 155 4 6 52
10 107 10 92 0 104 2 154 30 30 16 70 49 90 72 32 39 37 42 56 29 11 -7 33
-31 49 -54z m495 -27 c44 -50 62 -90 68 -149 11 -104 -39 -195 -136 -249 -125
-71 -285 -16 -347 118 -30 63 -31 143 -4 204 16 34 23 42 37 35 10 -4 50 -9
90 -12 84 -5 150 13 209 58 22 16 42 30 45 30 4 0 21 -16 38 -35z m-384 -413
c56 -44 52 -165 -9 -244 -66 -88 -162 -127 -258 -107 -125 27 -221 157 -204
277 9 66 22 84 54 75 15 -5 63 -8 107 -8 66 1 89 5 130 27 28 14 61 38 74 52
l24 25 27 -38 c15 -21 40 -47 55 -59z m415 -44 c56 -122 -10 -281 -139 -336
-55 -23 -148 -20 -203 7 -71 34 -74 41 -34 99 34 51 56 124 56 187 0 33 0 33
32 24 68 -19 176 -2 230 36 18 13 34 24 36 24 2 1 12 -18 22 -41z m-418 -348
c50 -36 125 -60 189 -60 52 0 59 -8 59 -69 0 -186 -206 -315 -370 -231 -44 23
-107 90 -126 136 -17 39 -18 129 -3 171 9 28 15 31 67 37 31 4 75 15 97 26 22
10 41 19 43 19 1 1 21 -13 44 -29z"/>
<path d="M1533 2264 c-23 -9 -56 -31 -72 -49 -82 -94 -29 -224 111 -272 29
-10 75 -29 103 -43 44 -22 50 -29 53 -61 4 -50 -25 -74 -89 -73 -57 1 -93 27
-103 75 -5 29 -7 29 -72 29 l-66 0 7 -32 c12 -55 21 -72 55 -105 43 -42 108
-63 194 -63 146 1 226 76 205 194 -13 73 -60 110 -213 168 -36 14 -67 34 -80
51 -19 26 -19 30 -5 55 43 77 169 57 169 -27 0 -19 6 -21 69 -21 l68 0 -7 38
c-12 67 -47 109 -112 137 -47 19 -159 18 -215 -1z"/>
<path d="M2286 2265 c-116 -41 -176 -196 -146 -374 24 -144 113 -221 255 -221
81 0 149 17 194 49 l31 22 0 125 0 124 -120 0 -120 0 0 -45 0 -45 55 0 55 0 0
-54 c0 -67 -14 -80 -86 -80 -60 0 -96 24 -120 81 -22 51 -18 218 6 271 46 101
170 89 204 -20 4 -15 17 -18 66 -18 56 0 60 2 60 23 -1 65 -68 147 -138 167
-52 14 -149 12 -196 -5z"/>
<path d="M3299 2253 c-99 -51 -147 -160 -136 -313 8 -126 54 -206 141 -246 65
-30 162 -32 222 -5 53 24 111 93 129 155 20 68 19 201 -2 267 -22 67 -93 142
-149 158 -71 20 -145 14 -205 -16z m193 -102 c38 -42 51 -101 46 -202 -9 -148
-69 -214 -161 -175 -59 24 -82 80 -81 201 0 117 16 164 66 195 44 28 94 21
130 -19z"/>
<path d="M4426 2265 c-116 -41 -176 -196 -146 -374 24 -144 113 -221 255 -221
81 0 149 17 194 49 l31 22 0 125 0 124 -120 0 -120 0 0 -45 0 -45 55 0 55 0 0
-54 c0 -67 -14 -80 -86 -80 -60 0 -96 24 -120 81 -22 51 -18 218 6 271 46 101
170 89 204 -20 4 -15 17 -18 66 -18 56 0 60 2 60 23 -1 65 -68 147 -138 167
-52 14 -149 12 -196 -5z"/>
<path d="M6263 2264 c-23 -9 -56 -31 -72 -49 -82 -94 -29 -224 111 -272 29
-10 75 -29 103 -43 44 -22 50 -29 53 -61 4 -50 -25 -74 -89 -73 -57 1 -93 27
-103 75 -5 29 -7 29 -72 29 l-66 0 7 -32 c12 -55 21 -72 55 -105 43 -42 108
-63 194 -63 146 1 226 76 205 194 -13 73 -60 110 -213 168 -36 14 -67 34 -80
51 -19 26 -19 30 -5 55 43 77 169 57 169 -27 0 -19 6 -21 69 -21 l68 0 -7 38
c-12 67 -47 109 -112 137 -47 19 -159 18 -215 -1z"/>
<path d="M2 2258 c3 -7 49 -140 103 -295 l98 -283 67 0 68 0 16 43 c40 108
186 531 186 539 0 5 -32 8 -71 6 l-72 -3 -60 -202 c-33 -112 -63 -203 -66
-203 -3 0 -33 91 -66 203 l-60 202 -74 3 c-57 2 -72 0 -69 -10z"/>
<path d="M610 1975 l0 -295 65 0 65 0 0 295 0 295 -65 0 -65 0 0 -295z"/>
<path d="M840 1975 l0 -295 65 0 65 0 2 181 3 180 110 -180 110 -181 67 0 68
0 0 295 0 295 -65 0 -65 0 -2 -185 -3 -184 -111 182 -110 182 -67 3 -67 3 0
-296z"/>
<path d="M2720 1975 l0 -295 200 0 200 0 0 45 0 45 -135 0 -135 0 0 85 0 85
115 0 115 0 0 45 0 45 -115 0 -115 0 0 75 0 75 135 0 135 0 0 45 0 45 -200 0
-200 0 0 -295z"/>
<path d="M3760 1976 l0 -296 65 0 65 0 0 110 0 110 43 0 43 0 54 -110 54 -110
74 0 74 0 -66 124 -66 125 34 20 c45 28 66 75 66 149 0 69 -24 114 -80 146
-31 18 -55 21 -197 24 l-163 4 0 -296z m269 189 c16 -8 31 -22 35 -30 9 -25 7
-84 -4 -105 -13 -24 -62 -40 -121 -40 l-49 0 0 95 0 95 55 0 c31 0 69 -7 84
-15z"/>
<path d="M4870 1975 l0 -295 65 0 65 0 0 295 0 295 -65 0 -65 0 0 -295z"/>
<path d="M5100 1975 l0 -295 200 0 200 0 0 45 0 45 -135 0 -135 0 0 85 0 85
115 0 115 0 0 45 0 45 -115 0 -115 0 0 75 0 75 135 0 135 0 0 45 0 45 -200 0
-200 0 0 -295z"/>
<path d="M5570 1975 l0 -295 65 0 65 0 2 181 3 180 110 -180 110 -181 67 0 68
0 0 295 0 295 -65 0 -65 0 -2 -185 -3 -184 -111 182 -110 182 -67 3 -67 3 0
-296z"/>
<path d="M890 1210 c-250 -31 -457 -196 -531 -422 -19 -58 -24 -94 -24 -178 0
-134 25 -219 96 -325 84 -125 196 -205 359 -257 l75 -23 2470 0 c2327 0 2474
1 2535 18 287 77 474 308 474 587 0 274 -190 510 -474 587 -61 16 -206 18
-2490 19 -1334 1 -2454 -2 -2490 -6z m4955 -65 c259 -66 445 -289 445 -535 0
-145 -51 -262 -165 -375 -85 -85 -153 -126 -270 -161 -57 -18 -181 -19 -2445
-22 -1570 -2 -2417 1 -2480 7 -123 13 -205 42 -296 103 -319 213 -330 647 -22
881 50 38 151 86 215 101 49 12 446 14 2508 15 2158 1 2458 -1 2510 -14z"/>
<path d="M1220 646 l0 -216 68 0 c84 0 133 13 173 47 45 38 59 80 59 174 0 65
-4 89 -22 121 -35 62 -76 82 -185 86 l-93 4 0 -216z m198 148 c59 -44 80 -149
46 -234 -22 -55 -62 -81 -134 -87 l-60 -6 0 178 0 177 60 -4 c39 -3 70 -11 88
-24z"/>
<path d="M2540 835 c0 -20 5 -25 25 -25 20 0 25 5 25 25 0 20 -5 25 -25 25
-20 0 -25 -5 -25 -25z"/>
<path d="M3147 840 c-52 -41 -56 -121 -10 -172 16 -17 15 -19 -4 -33 -33 -23
-48 -79 -34 -127 16 -53 58 -78 131 -78 73 0 115 25 131 79 14 48 6 85 -27
118 l-25 25 23 25 c18 19 23 35 22 75 0 44 -5 55 -32 80 -28 24 -41 28 -91 28
-43 0 -65 -5 -84 -20z m140 -42 c31 -29 30 -72 -3 -105 -21 -21 -32 -24 -62
-19 -67 10 -94 76 -50 123 28 30 83 31 115 1z m8 -193 c35 -34 34 -86 -1 -114
-38 -30 -98 -28 -129 4 -54 53 -15 135 65 135 30 0 47 -6 65 -25z"/>
<path d="M3472 835 c-37 -31 -52 -87 -52 -192 0 -98 14 -148 50 -185 23 -23
37 -28 75 -28 105 0 139 51 140 210 0 169 -30 220 -131 220 -41 0 -59 -5 -82
-25z m139 -41 c23 -24 24 -32 24 -144 0 -105 -2 -122 -21 -147 -31 -42 -83
-44 -116 -4 -54 63 -43 291 14 314 34 14 75 6 99 -19z"/>
<path d="M3797 840 c-39 -31 -52 -82 -52 -200 1 -159 35 -210 140 -210 86 0
125 66 125 213 0 159 -36 217 -134 217 -38 0 -61 -6 -79 -20z m118 -26 c33
-13 45 -59 45 -169 0 -84 -4 -113 -17 -136 -30 -50 -92 -53 -127 -6 -19 25
-21 42 -21 147 0 112 1 120 24 144 24 26 61 33 96 20z"/>
<path d="M4123 842 c-39 -30 -53 -82 -53 -197 0 -118 12 -159 55 -193 38 -30
112 -30 150 0 43 34 55 75 55 192 0 118 -16 174 -55 200 -33 22 -123 21 -152
-2z m141 -55 c18 -25 21 -42 21 -141 0 -123 -13 -160 -60 -172 -74 -18 -114
40 -115 166 0 133 26 183 93 178 30 -2 45 -10 61 -31z"/>
<path d="M4587 655 c-42 -113 -77 -210 -77 -216 0 -6 10 -9 23 -7 17 2 26 16
42 61 l20 57 90 0 91 0 21 -57 c15 -44 25 -59 42 -61 12 -2 21 2 21 9 0 7 -34
104 -76 216 -102 270 -95 270 -197 -2z m137 32 l35 -97 -74 0 -74 0 30 83 c17
45 34 90 36 100 3 10 7 16 9 15 1 -2 19 -47 38 -101z"/>
<path d="M1670 753 c-23 -9 -60 -45 -76 -75 -8 -15 -14 -55 -14 -90 0 -103 49
-158 142 -158 47 0 108 31 108 54 0 25 -19 28 -46 7 -57 -45 -146 -7 -160 67
l-6 32 111 0 111 0 0 30 c0 94 -88 163 -170 133z m80 -48 c19 -10 33 -27 38
-48 l8 -32 -84 -3 c-47 -2 -87 -1 -89 2 -8 8 26 64 49 80 28 20 41 20 78 1z"/>
<path d="M1973 746 c-18 -8 -33 -11 -33 -6 0 6 -9 10 -20 10 -19 0 -20 -7 -20
-215 0 -208 1 -215 20 -215 18 0 20 7 20 71 l0 70 22 -15 c13 -9 43 -16 69
-16 88 0 124 56 117 186 -3 67 -6 77 -34 105 -37 37 -93 46 -141 25z m81 -37
c57 -26 74 -147 29 -207 -27 -36 -79 -41 -116 -12 -25 20 -27 27 -27 99 0 79
7 99 45 119 26 15 38 15 69 1z"/>
<path d="M2730 753 c-37 -14 -60 -47 -60 -84 0 -48 25 -73 88 -89 64 -16 92
-35 92 -65 0 -29 -26 -45 -74 -45 -35 0 -76 27 -76 50 0 6 -9 10 -20 10 -29 0
-26 -41 5 -70 20 -19 40 -25 90 -28 61 -4 66 -3 95 26 35 35 40 78 12 112 -9
12 -48 31 -86 44 -76 24 -98 45 -80 74 19 30 59 38 99 19 19 -9 35 -23 35 -32
0 -9 9 -15 25 -15 33 0 32 22 -3 61 -23 26 -37 32 -78 35 -27 2 -56 1 -64 -3z"/>
<path d="M4988 742 c-30 -16 -38 -17 -38 -6 0 8 -9 14 -20 14 -19 0 -20 -7
-20 -160 0 -153 1 -160 20 -160 19 0 20 7 20 105 0 121 12 155 61 175 27 11
36 11 57 -1 34 -19 40 -43 41 -171 1 -102 2 -108 22 -108 20 0 20 4 17 140 -3
126 -5 142 -24 161 -30 30 -90 35 -136 11z"/>
<path d="M5270 743 c-26 -13 -37 -27 -44 -55 -14 -54 9 -83 82 -104 99 -28
126 -59 84 -97 -36 -33 -132 -11 -132 29 0 8 -10 14 -25 14 -29 0 -31 -10 -10
-49 19 -38 63 -54 131 -49 70 6 99 31 99 87 0 52 -16 67 -93 91 -36 11 -71 25
-79 31 -20 17 -16 46 9 63 34 24 66 19 100 -14 38 -38 60 -39 56 -3 -7 58
-110 91 -178 56z"/>
<path d="M2220 619 l0 -131 29 -29 c25 -24 38 -29 78 -29 28 0 58 7 71 16 20
14 22 14 22 0 0 -9 9 -16 20 -16 19 0 20 7 20 160 0 153 -1 160 -20 160 -19 0
-20 -7 -20 -115 0 -110 -1 -117 -25 -140 -16 -17 -35 -25 -57 -25 -66 0 -78
28 -78 169 0 104 -1 111 -20 111 -19 0 -20 -7 -20 -131z"/>
<path d="M2540 590 l0 -160 25 0 25 0 0 160 0 160 -25 0 -25 0 0 -160z"/>
</g>
</svg>
